<svg id="Layer_1" data-name="Layer 1" xmlns="http://www.w3.org/2000/svg" xmlns:xlink="http://www.w3.org/1999/xlink" viewBox="0 0 1275 335"><defs><style>.cls-1{fill:none;}.cls-2{clip-path:url(#clip-path);}.cls-3{fill:#fff;}</style><clipPath id="clip-path"><rect class="cls-1" x="71.9" y="50" width="1173.1" height="181.5"/></clipPath></defs><title>iconos_blanco</title><g class="cls-2"><path class="cls-3" d="M89.1,39.5H134V243.6H89.1Z"/></g><g class="cls-2"><path class="cls-3" d="M331.2,39.5V74.3H260.8c-16.3,0-28.4,5-36.4,15.1q-14,17.55-13.9,59.1c0,25.2,4.7,42,14.2,50.6,6.8,6.1,18.8,9.1,36.1,9.1h70.4v35.6H259q-95.55,0-95.5-98.2c0-33.7,6.8-59.1,20.5-76.4q23.55-29.55,76.2-29.5h71Z"/></g><g class="cls-2"><path class="cls-3" d="M450.6,35.6q47.1,0,71.9,20.7c20.7,17,31,45.6,31,85.5q0,106.2-102.3,106.3c-34.9,0-60.6-8.8-77.3-26.6s-25-44.5-25-80.3Q348.9,35.6,450.6,35.6ZM395.5,141.1q0,71.85,55.4,71.9,55.65,0,55.7-71,0-71.25-55.7-71.3Q395.55,70.55,395.5,141.1Z"/></g><g class="cls-2"><path class="cls-3" d="M625.9,243.6h-44V39.5h54.6l83.3,147L718,39.5h43.3V243.6H711.8L624.2,89.3Z"/></g><g class="cls-2"><path class="cls-3" d="M891.1,35.6q47.1,0,71.9,20.7c20.7,17,31,45.6,31,85.5Q994,248,891.7,248.1c-34.9,0-60.6-8.8-77.3-26.6s-25-44.5-25-80.3Q789.4,35.6,891.1,35.6ZM836,141.1q0,71.85,55.4,71.9,55.65,0,55.7-71,0-71.25-55.7-71.3Q835.9,70.55,836,141.1Z"/></g><g class="cls-2"><path class="cls-3" d="M1083,39.5h112.8V76h-106c-22.4,0-33.5,8.9-33.5,26.8q0,22.2,27.3,22.2h56.6c24.4,0,41.8,4.9,52,14.8,9.5,8.9,14,23.2,13.6,42.9-.4,20.4-5.6,35.4-15.6,44.8-11.4,10.8-30,16.2-56,16.2H1020V207h107.4c13.1,0,22.1-2.4,27-7.1q6-5.7,6-19.5c0-6-1.5-10.5-4.5-13.3-4.6-4.3-13.1-6.5-25.6-6.5h-50.6q-69,0-68.2-59.4c.4-20.3,5.7-35.3,15.9-45.2C1038.6,45,1057.2,39.5,1083,39.5Z"/></g><path class="cls-3" d="M105.5,245.7v45H98.2v-45h7.3Z"/><path class="cls-3" d="M111.6,268.4c0-4.1-.1-7.5-.2-10.4h6.4l.3,4.5h.1c1-2.1,3.3-5.3,7.3-5.3,4.8,0,8.4,4.5,8.4,14.1v19.3h-7.3V272.5c0-4.2-1.1-7.1-3.7-7.1-2,0-3.2,1.9-3.8,3.8a9.75,9.75,0,0,0-.2,2.5v18.8h-7.3Z"/><path class="cls-3" d="M139.8,281.9a11.46,11.46,0,0,0,6.3,2.4c2.2,0,3.1-1,3.1-2.7s-.7-2.5-3.4-3.8c-4.9-2.2-6.8-5.9-6.7-9.8,0-6.1,3.8-10.8,9.6-10.8a12,12,0,0,1,6.6,1.9L154,266a10.27,10.27,0,0,0-5.1-1.8,2.48,2.48,0,0,0-2.8,2.6c0,1.6.9,2.4,3.8,3.8,4.5,2.1,6.3,5.3,6.4,10,0,6.1-3.4,10.6-10.2,10.6a13.19,13.19,0,0,1-7.6-2.3Z"/><path class="cls-3" d="M168.9,249.1V258h5.3v7.5h-5.3v11.9c0,3.9.7,5.7,2.9,5.7a6.87,6.87,0,0,0,2.2-.3v7.7a10.81,10.81,0,0,1-4.7.9,6.54,6.54,0,0,1-5.5-2.8c-1.3-1.9-2-5.1-2-9.7V265.5h-3.1V258h3.1v-6.1Z"/><path class="cls-3" d="M182,253.7c-2.5,0-4-2.4-4-5.4s1.6-5.4,4.1-5.4,4,2.3,4.1,5.4-1.6,5.4-4.2,5.4Zm-3.6,37V258h7.3v32.7Z"/><path class="cls-3" d="M199.8,249.1V258h5.3v7.5h-5.3v11.9c0,3.9.7,5.7,2.9,5.7a6.87,6.87,0,0,0,2.2-.3v7.7a10.81,10.81,0,0,1-4.7.9,6.54,6.54,0,0,1-5.5-2.8c-1.3-1.9-2-5.1-2-9.7V265.5h-3.1V258h3.1v-6.1Z"/><path class="cls-3" d="M231.5,280.2c0,4.3.1,7.8.2,10.5h-6.4l-.3-4.6h-.1c-.9,2-3.1,5.3-7.4,5.3-4.8,0-8.3-4.1-8.3-14.2V258h7.3v17.6c0,4.7,1.1,7.6,3.7,7.6,2,0,3.2-1.9,3.7-3.5a6.87,6.87,0,0,0,.3-2.2V258h7.3Z"/><path class="cls-3" d="M245.5,249.1V258h5.3v7.5h-5.3v11.9c0,3.9.7,5.7,2.9,5.7a6.87,6.87,0,0,0,2.2-.3v7.7a10.81,10.81,0,0,1-4.7.9,6.54,6.54,0,0,1-5.5-2.8c-1.3-1.9-2-5.1-2-9.7V265.5h-3.1V258h3.1v-6.1Z"/><path class="cls-3" d="M265.6,291.4c-6.9,0-12.2-6.3-12.2-16.8s5-17.3,12.6-17.3c7.2,0,12,6.9,12,16.8.1,11.9-6.1,17.3-12.4,17.3Zm.2-7.3c2.9,0,4.7-3.9,4.7-9.8,0-4.8-1.3-9.8-4.7-9.8s-4.8,4.9-4.8,9.8c0,5.6,1.7,9.8,4.8,9.8Z"/><path class="cls-3" d="M315.2,243.3V281c0,3.7.1,7.6.2,9.8h-6.5l-.3-4.7h-.1c-1.4,3.6-4.3,5.5-7.4,5.5-5.6,0-10.1-6.6-10.1-16.8,0-11,4.9-17.4,10.6-17.4a6.59,6.59,0,0,1,6.2,3.7h.1V243.4h7.3Zm-7.4,28.6a12.1,12.1,0,0,0-.1-1.9c-.4-2.7-2-4.9-4.3-4.9-3.4,0-5.1,4.1-5.1,9.3,0,5.5,2,9,5,9,2.1,0,3.9-2,4.3-4.9a17,17,0,0,0,.1-2.3v-4.3Z"/><path class="cls-3" d="M326.7,277.5c.2,4.3,3.2,6.3,6.7,6.3a15.13,15.13,0,0,0,6.5-1.4l1,6.9a16.74,16.74,0,0,1-8.5,2.1c-8,0-12.6-6.4-12.6-16.7,0-8.3,3.8-17.4,11.9-17.4,7.6,0,10.5,8.2,10.5,16.3a38.06,38.06,0,0,1-.2,4.1Zm8.6-6.9c0-2.4-.8-6.6-4.1-6.6-3.1,0-4.4,3.9-4.6,6.6Z"/><path class="cls-3" d="M363.8,245.7v45h-7.3v-45h7.3Z"/><path class="cls-3" d="M369.9,268.4c0-4.1-.1-7.5-.2-10.4h6.4l.3,4.5h.1c1-2.1,3.3-5.3,7.3-5.3,4.8,0,8.4,4.5,8.4,14.1v19.3H385V272.5c0-4.2-1.1-7.1-3.7-7.1-2,0-3.2,1.9-3.8,3.8a9.75,9.75,0,0,0-.2,2.5v18.8H370V268.4Z"/><path class="cls-3" d="M402.7,258l3.2,15.2a74,74,0,0,1,1.3,8h.1c.4-2.7.8-5.1,1.3-8l3-15.2h7.7l-8.8,32.7h-7.3L394.6,258Z"/><path class="cls-3" d="M427.5,277.5c.2,4.3,3.2,6.3,6.6,6.3a15.13,15.13,0,0,0,6.5-1.4l1,6.9a16.74,16.74,0,0,1-8.5,2.1c-8,0-12.6-6.4-12.6-16.7,0-8.3,3.8-17.4,11.9-17.4,7.6,0,10.5,8.2,10.5,16.3a38.06,38.06,0,0,1-.2,4.1Zm8.6-6.9c0-2.4-.8-6.6-4.1-6.6-3.1,0-4.4,3.9-4.6,6.6Z"/><path class="cls-3" d="M447.3,281.9a11.46,11.46,0,0,0,6.3,2.4c2.2,0,3.1-1,3.1-2.7s-.7-2.5-3.4-3.8c-4.9-2.2-6.8-5.9-6.7-9.8,0-6.1,3.8-10.8,9.6-10.8a12,12,0,0,1,6.6,1.9l-1.3,6.9a10.27,10.27,0,0,0-5.1-1.8,2.48,2.48,0,0,0-2.8,2.6c0,1.6.9,2.4,3.8,3.8,4.5,2.1,6.3,5.3,6.4,10,0,6.1-3.4,10.6-10.2,10.6a13.19,13.19,0,0,1-7.6-2.3Z"/><path class="cls-3" d="M476.4,249.1V258h5.3v7.5h-5.3v11.9c0,3.9.7,5.7,2.9,5.7a6.87,6.87,0,0,0,2.2-.3v7.7a10.81,10.81,0,0,1-4.7.9,6.54,6.54,0,0,1-5.5-2.8c-1.3-1.9-2-5.1-2-9.7V265.5h-3.1V258h3.1v-6.1Z"/><path class="cls-3" d="M489.5,253.7c-2.5,0-4-2.4-4-5.4s1.6-5.4,4.1-5.4,4,2.3,4.1,5.4-1.6,5.4-4.2,5.4Zm-3.6,37V258h7.3v32.7Z"/><path class="cls-3" d="M521.4,286c0,6.3-.9,11.4-3.6,14.7-2.6,3.1-6.1,4-9.5,4a14.72,14.72,0,0,1-8.5-2.5l1.4-7.8a11.33,11.33,0,0,0,6.8,2.5c3.5,0,6.1-2.5,6.1-8.6v-2.1H514a7.12,7.12,0,0,1-6.4,4.2c-5.8,0-10-6.5-10-15.9,0-10.6,4.9-17.2,10.7-17.2,3.2,0,5.3,1.9,6.5,4.6h.1l.2-3.9h6.4c-.1,2.1-.2,4.9-.2,9.8V286Zm-7.3-14.7a12.1,12.1,0,0,0-.1-1.9c-.5-2.7-1.9-4.5-3.9-4.5-2.7,0-4.8,3.3-4.8,9.3,0,4.9,1.7,8.7,4.8,8.7,1.9,0,3.4-1.7,3.9-4.1a12.29,12.29,0,0,0,.2-2.7v-4.8Z"/><path class="cls-3" d="M546.9,282.8a56.3,56.3,0,0,0,.4,7.9h-6.6l-.4-3.3h-.1a7.66,7.66,0,0,1-6.7,4c-4.8,0-7.6-4.8-7.6-10,0-8.5,5.5-12.5,13.8-12.5v-.4c0-1.7-.7-4.2-4.3-4.2a10.72,10.72,0,0,0-6.5,2.4l-1.3-6.5a15.09,15.09,0,0,1,9.2-2.9c7.9,0,10.3,6.4,10.3,14.1v11.4Zm-7.1-7.5c-3.9,0-6.8,1.3-6.8,5.1,0,2.6,1.3,3.9,2.9,3.9,1.8,0,3.3-1.7,3.8-3.7a9.15,9.15,0,0,0,.1-1.7Z"/><path class="cls-3" d="M570.4,289.9a12.61,12.61,0,0,1-6.6,1.5c-7.6,0-12.5-6.5-12.5-16.8,0-9.6,4.7-17.4,13.5-17.4a13.16,13.16,0,0,1,5.6,1.3l-1.2,7.6a8.17,8.17,0,0,0-4.1-1c-3.9,0-6.4,3.8-6.3,9.2,0,6,2.9,9.2,6.5,9.2a7.7,7.7,0,0,0,4.2-1.1Z"/><path class="cls-3" d="M578.1,253.7c-2.5,0-4-2.4-4-5.4s1.6-5.4,4.1-5.4,4,2.3,4.1,5.4-1.6,5.4-4.2,5.4Zm-3.7,37V258h7.3v32.7Z"/><path class="cls-3" d="M598.5,291.4c-6.9,0-12.2-6.3-12.2-16.8s5-17.3,12.6-17.3c7.2,0,12,6.9,12,16.8,0,11.9-6.1,17.3-12.4,17.3Zm.1-7.3c2.9,0,4.7-3.9,4.7-9.8,0-4.8-1.3-9.8-4.7-9.8s-4.8,4.9-4.8,9.8c0,5.6,1.7,9.8,4.8,9.8Zm7.7-40.2-5.9,10.2h-5l4.1-10.2Z"/><path class="cls-3" d="M615.4,268.4c0-4.1-.1-7.5-.2-10.4h6.4l.3,4.5h.1c1-2.1,3.3-5.3,7.3-5.3,4.8,0,8.4,4.5,8.4,14.1v19.3h-7.3V272.5c0-4.2-1.1-7.1-3.7-7.1-2,0-3.2,1.9-3.8,3.8a9.75,9.75,0,0,0-.2,2.5v18.8h-7.3Z"/><path class="cls-3" d="M659,277.5c.2,4.3,3.2,6.3,6.7,6.3a15.13,15.13,0,0,0,6.5-1.4l1,6.9a16.74,16.74,0,0,1-8.5,2.1c-8,0-12.6-6.4-12.6-16.7,0-8.3,3.8-17.4,11.9-17.4,7.6,0,10.5,8.2,10.5,16.3a38.05,38.05,0,0,1-.2,4.1Zm8.7-6.9c0-2.4-.8-6.6-4.1-6.6-3.1,0-4.4,3.9-4.6,6.6Z"/><path class="cls-3" d="M678.8,268.4c0-4.1-.1-7.5-.2-10.4H685l.3,4.5h.1c1-2.1,3.3-5.3,7.3-5.3,4.8,0,8.4,4.5,8.4,14.1v19.3h-7.3V272.5c0-4.2-1.1-7.1-3.7-7.1-2,0-3.2,1.9-3.8,3.8a9.75,9.75,0,0,0-.2,2.5v18.8h-7.3Z"/><path class="cls-3" d="M740.9,289.5c-1.3.9-4.4,1.9-8.3,1.9-11.2,0-17-9.8-17-22.7,0-15.4,7.9-23.9,17.7-23.9a15,15,0,0,1,8,2l-1.5,8a11.44,11.44,0,0,0-6.2-1.7c-5.8,0-10.3,4.9-10.3,15,0,9,3.9,14.7,10.4,14.7a12.91,12.91,0,0,0,6.2-1.5Z"/><path class="cls-3" d="M755.3,291.4c-6.9,0-12.2-6.3-12.2-16.8s5-17.3,12.6-17.3c7.2,0,12,6.9,12,16.8,0,11.9-6.1,17.3-12.4,17.3Zm.1-7.3c2.9,0,4.7-3.9,4.7-9.8,0-4.8-1.3-9.8-4.7-9.8s-4.8,4.9-4.8,9.8c0,5.6,1.7,9.8,4.8,9.8Z"/><path class="cls-3" d="M772.3,268.4c0-4.1-.1-7.5-.2-10.4h6.2l.3,4.5h.1c1-2.1,3.1-5.2,7.1-5.2,3.1,0,5.4,2.2,6.5,5.6h.1a11.83,11.83,0,0,1,3.1-4,7.06,7.06,0,0,1,4.5-1.6c4.5,0,7.9,4.4,7.9,14.2v19.2h-7.1V273c0-4.7-1.1-7.5-3.5-7.5-1.7,0-2.9,1.6-3.4,3.5a19.49,19.49,0,0,0-.2,2.5v19.1h-7.1V272.3c0-4.1-1.1-6.9-3.4-6.9-1.9,0-3,2-3.4,3.6a10.9,10.9,0,0,0-.3,2.6v19h-7.1V268.4Z"/><path class="cls-3" d="M835.9,280.2c0,4.3.1,7.8.2,10.5h-6.4l-.3-4.6h-.1c-.9,2-3.1,5.3-7.4,5.3-4.8,0-8.3-4.1-8.3-14.2V258h7.3v17.6c0,4.7,1.1,7.6,3.7,7.6,2,0,3.2-1.9,3.7-3.5a6.87,6.87,0,0,0,.3-2.2V258h7.3Z"/><path class="cls-3" d="M841.8,268.4c0-4.1-.1-7.5-.2-10.4H848l.3,4.5h.1c1-2.1,3.3-5.3,7.3-5.3,4.8,0,8.4,4.5,8.4,14.1v19.3h-7.3V272.5c0-4.2-1.1-7.1-3.7-7.1-2,0-3.2,1.9-3.8,3.8a9.75,9.75,0,0,0-.2,2.5v18.8h-7.3Z"/><path class="cls-3" d="M873.6,253.7c-2.5,0-4-2.4-4-5.4s1.6-5.4,4.1-5.4,4,2.3,4.1,5.4-1.6,5.4-4.2,5.4Zm-3.6,37V258h7.3v32.7Z"/><path class="cls-3" d="M900.9,289.9a12.61,12.61,0,0,1-6.6,1.5c-7.6,0-12.5-6.5-12.5-16.8,0-9.6,4.7-17.4,13.5-17.4a13.16,13.16,0,0,1,5.6,1.3l-1.2,7.6a8.17,8.17,0,0,0-4.1-1c-3.9,0-6.4,3.8-6.3,9.2,0,6,2.9,9.2,6.5,9.2a7.7,7.7,0,0,0,4.2-1.1Z"/><path class="cls-3" d="M924.7,282.8a56.3,56.3,0,0,0,.4,7.9h-6.6l-.4-3.3H918a7.66,7.66,0,0,1-6.7,4c-4.8,0-7.6-4.8-7.6-10,0-8.5,5.5-12.5,13.8-12.5v-.4c0-1.7-.7-4.2-4.3-4.2a10.72,10.72,0,0,0-6.5,2.4l-1.3-6.5a15.09,15.09,0,0,1,9.2-2.9c7.9,0,10.3,6.4,10.3,14.1v11.4Zm-7-7.5c-3.9,0-6.8,1.3-6.8,5.1,0,2.6,1.3,3.9,2.9,3.9,1.8,0,3.3-1.7,3.8-3.7a9.15,9.15,0,0,0,.1-1.7Z"/><path class="cls-3" d="M948.3,289.9a12.61,12.61,0,0,1-6.6,1.5c-7.6,0-12.5-6.5-12.5-16.8,0-9.6,4.7-17.4,13.5-17.4a13.16,13.16,0,0,1,5.6,1.3l-1.2,7.6a8.17,8.17,0,0,0-4.1-1c-3.9,0-6.4,3.8-6.3,9.2,0,6,2.9,9.2,6.5,9.2a7.7,7.7,0,0,0,4.2-1.1Z"/><path class="cls-3" d="M955.9,253.7c-2.5,0-4-2.4-4-5.4s1.6-5.4,4.1-5.4,4,2.3,4.1,5.4-1.6,5.4-4.2,5.4Zm-3.6,37V258h7.3v32.7Z"/><path class="cls-3" d="M976.3,291.4c-6.9,0-12.2-6.3-12.2-16.8s5-17.3,12.6-17.3c7.2,0,12,6.9,12,16.8.1,11.9-6,17.3-12.4,17.3Zm.2-7.3c2.9,0,4.7-3.9,4.7-9.8,0-4.8-1.3-9.8-4.7-9.8s-4.8,4.9-4.8,9.8c0,5.6,1.7,9.8,4.8,9.8Zm7.6-40.2-5.9,10.2h-5l4.1-10.2Z"/><path class="cls-3" d="M993.3,268.4c0-4.1-.1-7.5-.2-10.4h6.4l.3,4.5h.1c1-2.1,3.3-5.3,7.3-5.3,4.8,0,8.4,4.5,8.4,14.1v19.3h-7.3V272.5c0-4.2-1.1-7.1-3.7-7.1-2,0-3.2,1.9-3.8,3.8a9.75,9.75,0,0,0-.2,2.5v18.8h-7.3Z"/><path class="cls-3" d="M1036.8,258l3.5,16c.4,1.9.9,4.3,1.2,6.1h.1c.3-1.7.7-4.2,1.1-6.1l2.9-16h7.9l-5.5,21.5c-3.4,13-5.6,18.1-8.3,21.4a11.56,11.56,0,0,1-7.1,4.5l-1.5-8.6a12.56,12.56,0,0,0,3.2-1.7,10,10,0,0,0,3-4.1,4.19,4.19,0,0,0,.4-1.5,4.54,4.54,0,0,0-.3-1.7l-8.7-29.9h8.1Z"/><path class="cls-3" d="M1090.2,289.5c-1.3.9-4.4,1.9-8.3,1.9-11.2,0-17-9.8-17-22.7,0-15.4,7.9-23.9,17.7-23.9a15,15,0,0,1,8,2l-1.5,8a11.44,11.44,0,0,0-6.2-1.7c-5.8,0-10.3,4.9-10.3,15,0,9,3.9,14.7,10.4,14.7a12.91,12.91,0,0,0,6.2-1.5Z"/><path class="cls-3" d="M1116.1,280.2c0,4.3.1,7.8.2,10.5h-6.4l-.3-4.6h-.1c-.9,2-3.1,5.3-7.4,5.3-4.8,0-8.3-4.1-8.3-14.2V258h7.3v17.6c0,4.7,1.1,7.6,3.7,7.6,2,0,3.2-1.9,3.7-3.5a6.87,6.87,0,0,0,.3-2.2V258h7.3v22.2Z"/><path class="cls-3" d="M1122,243.3h7.3v47.4H1122Z"/><path class="cls-3" d="M1143.4,249.1V258h5.3v7.5h-5.3v11.9c0,3.9.7,5.7,2.9,5.7a6.87,6.87,0,0,0,2.2-.3v7.7a10.81,10.81,0,0,1-4.7.9,6.54,6.54,0,0,1-5.5-2.8c-1.3-1.9-2-5.1-2-9.7V265.5h-3.1V258h3.1v-6.1Z"/><path class="cls-3" d="M1175.1,280.2c0,4.3.1,7.8.2,10.5h-6.4l-.3-4.6h-.1c-.9,2-3.1,5.3-7.4,5.3-4.8,0-8.3-4.1-8.3-14.2V258h7.3v17.6c0,4.7,1.1,7.6,3.7,7.6,2,0,3.2-1.9,3.7-3.5a6.87,6.87,0,0,0,.3-2.2V258h7.3v22.2Z"/><path class="cls-3" d="M1181,268.8c0-4.8,0-8-.2-10.8h6.3l.3,6.1h.2c1.2-4.8,4-6.8,6.4-6.8a6.05,6.05,0,0,1,1.5.2v9.6a10.58,10.58,0,0,0-2-.3c-2.7,0-4.5,1.9-5,5.1a16.23,16.23,0,0,0-.1,2.3v16.5h-7.3Z"/><path class="cls-3" d="M1218.3,282.8a56.3,56.3,0,0,0,.4,7.9h-6.6l-.4-3.3h-.1a7.66,7.66,0,0,1-6.7,4c-4.8,0-7.6-4.8-7.6-10,0-8.5,5.5-12.5,13.8-12.5v-.4c0-1.7-.7-4.2-4.3-4.2a10.72,10.72,0,0,0-6.5,2.4l-1.3-6.5a15.09,15.09,0,0,1,9.2-2.9c7.9,0,10.3,6.4,10.3,14.1v11.4Zm-7.1-7.5c-3.9,0-6.8,1.3-6.8,5.1,0,2.6,1.3,3.9,2.9,3.9,1.8,0,3.3-1.7,3.8-3.7a9.15,9.15,0,0,0,.1-1.7Z"/></svg>