<svg id="tipografias_copia_2" data-name="tipografias copia 2" xmlns="http://www.w3.org/2000/svg" viewBox="0 0 639 197"><defs><style>.cls-1{fill:#fff;}.cls-2{fill:#fb66ff;stroke:#070707;}.cls-2,.cls-4{stroke-miterlimit:10;stroke-width:4px;}.cls-3{fill:#f9f455;}.cls-4{fill:none;stroke:#fff;}</style></defs><title>TriadicoFF</title><rect class="cls-1" x="88.76" y="155.55" width="8.88" height="27.25"/><rect class="cls-1" x="189.01" y="155.55" width="8.88" height="27.25"/><rect class="cls-1" x="350.83" y="155.42" width="8.88" height="27.25"/><circle class="cls-2" cx="498.91" cy="100.01" r="56.63"/><ellipse class="cls-3" cx="498.91" cy="100.39" rx="29.4" ry="28.4"/><path class="cls-1" d="M88.78,159.46V48.22H74.56V39.4h36.9v8.82H97.6V159.46Z"/><path class="cls-1" d="M161,159.46l-31-25.92v25.92h-8.82V39.4h6.66A47.57,47.57,0,0,1,162,53.08q14.22,13.68,14.22,33.84,0,16.2-8.82,28.08T143,132.82l32,26.64Zm6.48-71.82q0-16.38-10.53-27.27T130,47.86v78.66q16.2-1.8,26.46-12.06Q167.43,103.66,167.44,87.64Z"/><path class="cls-1" d="M189,159.46V39.4h8.82V159.46Z"/><path class="cls-1" d="M244.66,159.46V77.56H224.32v81.9H215.5V77.56h-4.68l-2.88-8.82h7.56q0-15.12,2.16-20.7,4-10.26,16.74-10.26,10.26,0,14.94,6.84,4,5.76,4,16.38v98.46Zm0-101.52a12.8,12.8,0,0,0-2.52-8.1,8.59,8.59,0,0,0-7.2-3.24,9.92,9.92,0,0,0-7.83,3.15,11.89,11.89,0,0,0-2.79,8.19v10.8h20.34Zm-6.84-27h-9L240,14.2h9.18Z"/><path class="cls-1" d="M244.66,159.37V77.47H224.32v81.9H215.5V77.47h-4.68l-2.88-8.82h7.56q0-15.12,2.16-20.7,4-10.26,16.74-10.26,10.26,0,14.94,6.84,4,5.76,4,16.38v98.46Zm0-101.52a12.8,12.8,0,0,0-2.52-8.1,8.59,8.59,0,0,0-7.2-3.24,9.92,9.92,0,0,0-7.83,3.15,11.89,11.89,0,0,0-2.79,8.19v10.8h20.34Z"/><path class="cls-1" d="M270.58,39.4h7.92q25.56,0,42.93,17T338.8,98.8q0,25.38-17.82,43t-43.2,17.64h-7.2Zm59.58,59.22q0-20.7-14.94-35.82T279.4,47.68V150.46q21.42,0,36.09-15T330.16,98.62Z"/><path class="cls-1" d="M350.85,159.46V39.4h8.82V159.46Z"/><path class="cls-1" d="M371.91,99.34q0-25.92,17.19-42.93t42.57-17V48q-21.42,0-36.27,14.67T380.55,99.34q0,22,14.76,36.72t36.36,14.76v8.64q-25,0-42.39-17.37T371.91,99.34Z"/><path class="cls-1" d="M559.47,99.7a59.13,59.13,0,0,1-18,43.38,59.12,59.12,0,0,1-43.38,18,60.34,60.34,0,0,1-43.56-17.64q-18.18-17.64-18.18-43.2,0-26.46,18.18-44.46t44.64-18q25.2,0,42.75,18.27A60.81,60.81,0,0,1,559.47,99.7ZM445,99.52a52.85,52.85,0,0,0,52.92,52.74,51.55,51.55,0,0,0,37.35-15.21,49.57,49.57,0,0,0,15.57-36.81q0-23-15.66-38.34T496.65,46.6q-21.24,0-36.45,15.75T445,99.52Z"/><path class="cls-1" d="M505.33,101.46a6.41,6.41,0,0,1-6.4,6.4,6.29,6.29,0,0,1-4.54-1.84,6,6,0,0,1-1.89-4.5,6.26,6.26,0,0,1,1.89-4.63A6.36,6.36,0,0,1,499,95a6,6,0,0,1,4.46,1.9A6.34,6.34,0,0,1,505.33,101.46Zm-11.93,0a5.51,5.51,0,0,0,5.52,5.5,5.37,5.37,0,0,0,3.89-1.59,5.17,5.17,0,0,0,1.62-3.84,5.36,5.36,0,0,0-1.63-4,5.52,5.52,0,0,0-4-1.59,5.1,5.1,0,0,0-3.8,1.64A5.39,5.39,0,0,0,493.4,101.44Z"/><circle class="cls-1" cx="498.91" cy="101.43" r="5.92"/><line class="cls-4" x1="499.04" y1="182.67" x2="499.17" y2="37.78"/></svg>